<svg xmlns="http://www.w3.org/2000/svg" width="800" height="450" viewBox="0 0 800 450">
  <rect width="800" height="450" fill="#0a0f0a"/>
  <rect x="0" y="0" width="800" height="40" fill="#111811"/>
  <circle cx="20" cy="20" r="6" fill="#ff5f57"/>
  <circle cx="40" cy="20" r="6" fill="#febc2e"/>
  <circle cx="60" cy="20" r="6" fill="#28c840"/>
  <rect x="200" y="12" width="400" height="16" rx="8" fill="#182018"/>
  <text x="400" y="24" font-family="monospace" font-size="11" fill="#7a9e7a" text-anchor="middle">example-project.github.io/settings</text>
  <rect x="40" y="60" width="200" height="360" rx="8" fill="#111811" stroke="#1e2e1e" stroke-width="1"/>
  <rect x="55" y="80" width="170" height="30" rx="6" fill="#22c55e" opacity="0.15"/>
  <text x="140" y="100" font-family="sans-serif" font-size="13" fill="#22c55e" text-anchor="middle">Dashboard</text>
  <rect x="55" y="120" width="170" height="30" rx="6" fill="transparent"/>
  <text x="140" y="140" font-family="sans-serif" font-size="13" fill="#7a9e7a" text-anchor="middle">Settings</text>
  <rect x="55" y="160" width="170" height="30" rx="6" fill="transparent"/>
  <text x="140" y="180" font-family="sans-serif" font-size="13" fill="#7a9e7a" text-anchor="middle">Reports</text>
  <rect x="55" y="200" width="170" height="30" rx="6" fill="transparent"/>
  <text x="140" y="220" font-family="sans-serif" font-size="13" fill="#7a9e7a" text-anchor="middle">Users</text>
  <rect x="260" y="60" width="500" height="360" rx="8" fill="#111811" stroke="#1e2e1e" stroke-width="1"/>
  <text x="280" y="90" font-family="sans-serif" font-size="16" font-weight="bold" fill="#e2ece2">Dashboard</text>
  <rect x="275" y="105" width="220" height="120" rx="6" fill="#182018" stroke="#1e2e1e" stroke-width="1"/>
  <text x="295" y="130" font-family="sans-serif" font-size="11" fill="#7a9e7a">Total visitors</text>
  <text x="295" y="165" font-family="sans-serif" font-size="32" font-weight="bold" fill="#22c55e">1,482</text>
  <rect x="510" y="105" width="220" height="120" rx="6" fill="#182018" stroke="#1e2e1e" stroke-width="1"/>
  <text x="530" y="130" font-family="sans-serif" font-size="11" fill="#7a9e7a">Active projects</text>
  <text x="530" y="165" font-family="sans-serif" font-size="32" font-weight="bold" fill="#22c55e">7</text>
  <rect x="275" y="240" width="455" height="160" rx="6" fill="#182018" stroke="#1e2e1e" stroke-width="1"/>
  <text x="295" y="265" font-family="sans-serif" font-size="11" fill="#7a9e7a">Activity chart</text>
  <polyline points="295,390 340,360 385,370 430,330 475,320 520,290 565,300 610,270 655,260 700,240" fill="none" stroke="#22c55e" stroke-width="2"/>
  <text x="400" y="430" font-family="monospace" font-size="10" fill="#7a9e7a" text-anchor="middle" opacity="0.5">screenshot 2 — example project</text>
</svg>
