<svg xmlns="http://www.w3.org/2000/svg" width="800" height="450" viewBox="0 0 800 450">
  <rect width="800" height="450" fill="#0a0f0a"/>
  <rect x="0" y="0" width="800" height="40" fill="#111811"/>
  <circle cx="20" cy="20" r="6" fill="#ff5f57"/>
  <circle cx="40" cy="20" r="6" fill="#febc2e"/>
  <circle cx="60" cy="20" r="6" fill="#28c840"/>
  <rect x="200" y="12" width="400" height="16" rx="8" fill="#182018"/>
  <text x="400" y="24" font-family="monospace" font-size="11" fill="#7a9e7a" text-anchor="middle">example-project.github.io</text>
  <rect x="40" y="60" width="720" height="50" rx="6" fill="#111811" stroke="#1e2e1e" stroke-width="1"/>
  <text x="60" y="91" font-family="sans-serif" font-size="22" font-weight="bold" fill="#22c55e">Example Project</text>
  <rect x="40" y="130" width="340" height="280" rx="8" fill="#111811" stroke="#1e2e1e" stroke-width="1"/>
  <rect x="55" y="145" width="310" height="16" rx="3" fill="#182018"/>
  <rect x="55" y="170" width="250" height="12" rx="3" fill="#182018"/>
  <rect x="55" y="190" width="280" height="12" rx="3" fill="#182018"/>
  <rect x="55" y="210" width="200" height="12" rx="3" fill="#182018"/>
  <rect x="55" y="240" width="310" height="80" rx="6" fill="#0a0f0a" stroke="#1e2e1e" stroke-width="1"/>
  <text x="70" y="260" font-family="monospace" font-size="11" fill="#22c55e">$ npx serve .</text>
  <text x="70" y="278" font-family="monospace" font-size="11" fill="#7a9e7a">Serving on http://localhost:3000</text>
  <rect x="400" y="130" width="360" height="130" rx="8" fill="#111811" stroke="#22c55e" stroke-width="1" opacity="0.6"/>
  <rect x="415" y="145" width="80" height="80" rx="6" fill="#182018"/>
  <rect x="510" y="145" width="80" height="80" rx="6" fill="#182018"/>
  <rect x="605" y="145" width="80" height="80" rx="6" fill="#182018"/>
  <rect x="415" y="235" width="80" height="12" rx="3" fill="#182018"/>
  <rect x="510" y="235" width="80" height="12" rx="3" fill="#182018"/>
  <rect x="400" y="280" width="360" height="130" rx="8" fill="#111811" stroke="#1e2e1e" stroke-width="1"/>
  <rect x="415" y="295" width="200" height="16" rx="3" fill="#182018"/>
  <rect x="415" y="320" width="330" height="10" rx="3" fill="#182018"/>
  <rect x="415" y="338" width="280" height="10" rx="3" fill="#182018"/>
  <rect x="415" y="356" width="310" height="10" rx="3" fill="#182018"/>
  <text x="400" y="430" font-family="monospace" font-size="10" fill="#7a9e7a" text-anchor="middle" opacity="0.5">screenshot 1 — example project</text>
</svg>
