<svg xmlns="http://www.w3.org/2000/svg" width="800" height="450" viewBox="0 0 800 450">
  <rect width="800" height="450" fill="#0a0f0a"/>
  <circle cx="400" cy="225" r="180" fill="none" stroke="#1e2e1e" stroke-width="1"/>
  <circle cx="400" cy="225" r="120" fill="none" stroke="#1e2e1e" stroke-width="1"/>
  <circle cx="400" cy="225" r="60" fill="none" stroke="#22c55e" stroke-width="1" opacity="0.4"/>
  <line x1="220" y1="225" x2="580" y2="225" stroke="#1e2e1e" stroke-width="1"/>
  <line x1="400" y1="45" x2="400" y2="405" stroke="#1e2e1e" stroke-width="1"/>
  <circle cx="400" cy="100" r="8" fill="#22c55e" opacity="0.8"/>
  <circle cx="520" cy="185" r="8" fill="#22c55e" opacity="0.6"/>
  <circle cx="480" cy="320" r="8" fill="#22c55e" opacity="0.5"/>
  <circle cx="290" cy="290" r="8" fill="#22c55e" opacity="0.7"/>
  <circle cx="270" cy="160" r="8" fill="#22c55e" opacity="0.4"/>
  <line x1="400" y1="100" x2="520" y2="185" stroke="#22c55e" stroke-width="1" opacity="0.3"/>
  <line x1="520" y1="185" x2="480" y2="320" stroke="#22c55e" stroke-width="1" opacity="0.3"/>
  <line x1="480" y1="320" x2="290" y2="290" stroke="#22c55e" stroke-width="1" opacity="0.3"/>
  <line x1="290" y1="290" x2="270" y2="160" stroke="#22c55e" stroke-width="1" opacity="0.3"/>
  <line x1="270" y1="160" x2="400" y2="100" stroke="#22c55e" stroke-width="1" opacity="0.3"/>
  <circle cx="400" cy="225" r="12" fill="#22c55e" opacity="0.9"/>
  <text x="400" y="430" font-family="monospace" font-size="10" fill="#7a9e7a" text-anchor="middle" opacity="0.5">cover — another project</text>
</svg>
